<svg xmlns="http://www.w3.org/2000/svg" viewBox="0 0 64 64" width="64" height="64">
  <defs>
    <clipPath id="tl"><polygon points="0,0 64,0 0,64" /></clipPath>
    <clipPath id="br"><polygon points="64,0 64,64 0,64" /></clipPath>
  </defs>

  <!-- top-left: sun -->
  <g clip-path="url(#tl)">
    <g stroke="#f5a623" stroke-width="3" stroke-linecap="round">
      <line x1="18.14" y1="40.00" x2="12.51" y2="43.25" />
      <line x1="16.00" y1="32.00" x2="9.50" y2="32.00" />
      <line x1="18.14" y1="24.00" x2="12.51" y2="20.75" />
      <line x1="24.00" y1="18.14" x2="20.75" y2="12.51" />
      <line x1="32.00" y1="16.00" x2="32.00" y2="9.50" />
      <line x1="40.00" y1="18.14" x2="43.25" y2="12.51" />
    </g>
    <circle cx="32" cy="32" r="15" fill="#fdb813" />
  </g>

  <!-- bottom-right: virus -->
  <g clip-path="url(#br)">
    <circle cx="32" cy="32" r="15" fill="#e15759" />
    <g stroke="#e15759" stroke-width="3" stroke-linecap="round">
      <line x1="44.99" y1="24.50" x2="49.75" y2="21.75" />
      <line x1="47.00" y1="32.00" x2="52.50" y2="32.00" />
      <line x1="44.99" y1="39.50" x2="49.75" y2="42.25" />
      <line x1="39.50" y1="44.99" x2="42.25" y2="49.75" />
      <line x1="32.00" y1="47.00" x2="32.00" y2="52.50" />
      <line x1="24.50" y1="44.99" x2="21.75" y2="49.75" />
    </g>
    <g fill="#e15759">
      <circle cx="51.05" cy="21.00" r="3" />
      <circle cx="54.00" cy="32.00" r="3" />
      <circle cx="51.05" cy="43.00" r="3" />
      <circle cx="43.00" cy="51.05" r="3" />
      <circle cx="32.00" cy="54.00" r="3" />
      <circle cx="21.00" cy="51.05" r="3" />
    </g>
    <g fill="#fdb813">
      <circle cx="38.5" cy="38.5" r="1.9" />
      <circle cx="43.5" cy="33" r="1.5" />
      <circle cx="33" cy="43.5" r="1.5" />
    </g>
  </g>
</svg>
